<svg id="Component_1_1" data-name="Component 1 – 1" xmlns="http://www.w3.org/2000/svg" width="1517" height="2235" viewBox="0 0 303 427"> <g transform="scale(0.06 0.06)">
  <g id="Rectangle_1" data-name="Rectangle 1" fill="#fff" stroke="#000" stroke-width="5">
    <rect width="1517" height="2235" rx="81" stroke="none"/>
    <rect x="2.5" y="2.5" width="1512" height="2230" rx="78.5" fill="none"/>
  </g>
  <path id="Path_7" data-name="Path 7" d="M96,409.658C133.618,368.038,176.839,288,176.839,288s40.019,80.038,74.435,121.658c-35.217,49.624-74.435,134.464-74.435,134.464S127.215,452.879,96,409.658Z" transform="translate(-30 -47.122)" fill="red" stroke="red" stroke-width="1"/>
  <path id="Path_8" data-name="Path 8" d="M96,412.286C134.431,369.767,178.585,288,178.585,288s40.884,81.767,76.044,124.286c-35.978,50.7-76.044,137.369-76.044,137.369S127.889,456.441,96,412.286Z" transform="translate(1555.297 2258.578) rotate(180)" fill="red" stroke="red" stroke-width="1"/>
  <text id="A" transform="translate(92 198)" fill="red" font-size="175" font-family="TrebuchetMS, Trebuchet MS"><tspan x="0" y="0">A</tspan></text>
  <text id="A-2" data-name="A" transform="matrix(-1, 0.017, -0.017, -1, 1429.901, 2028.111)" fill="red" font-size="175" font-family="TrebuchetMS, Trebuchet MS"><tspan x="0" y="0">A</tspan></text>
  <path id="Path_20" data-name="Path 20" d="M96,528.105C170.243,445.964,255.544,288,255.544,288S334.526,445.964,402.45,528.105c-69.5,97.938-146.907,265.38-146.907,265.38S157.606,613.406,96,528.105Z" transform="translate(509 576.515)" fill="red" stroke="red" stroke-width="1"/>
<text x="1517" y="2235" font-size="200">The Ace of Diomonds</text></g></svg>
