<svg id="Component_29_1" data-name="Component 29 – 1" xmlns="http://www.w3.org/2000/svg" width="1517" height="2235" viewBox="0 0 303 427"> <g transform="scale(0.06 0.06)">
  <g id="Rectangle_41" data-name="Rectangle 41" fill="#fff" stroke="#000" stroke-width="5">
    <rect width="1517" height="2235" rx="81" stroke="none"/>
    <rect x="2.5" y="2.5" width="1512" height="2230" rx="78.5" fill="none"/>
  </g>
  <path id="Path_160" data-name="Path 160" d="M96,409.658C133.618,368.038,176.839,288,176.839,288s40.019,80.038,74.435,121.658c-35.217,49.624-74.435,134.464-74.435,134.464S127.215,452.879,96,409.658Z" transform="translate(-30 -47.122)" fill="red" stroke="red" stroke-width="1"/>
  <path id="Path_161" data-name="Path 161" d="M96,412.286C134.431,369.767,178.585,288,178.585,288s40.884,81.767,76.044,124.286c-35.978,50.7-76.044,137.369-76.044,137.369S127.889,456.441,96,412.286Z" transform="translate(1555.297 2258.578) rotate(180)" fill="red" stroke="red" stroke-width="1"/>
  <text id="J" transform="translate(92 198)" fill="red" font-size="175" font-family="TrebuchetMS, Trebuchet MS"><tspan x="0" y="0">J</tspan></text>
  <text id="J-2" data-name="J" transform="matrix(-1, 0.017, -0.017, -1, 1429.901, 2028.109)" fill="red" font-size="175" font-family="TrebuchetMS, Trebuchet MS"><tspan x="0" y="0">J</tspan></text>
  <g id="Component_6_4" data-name="Component 6 – 4" transform="translate(248 466.766)">
    <g id="Component_2_1" data-name="Component 2 – 1">
      <path id="Path_234" data-name="Path 234" d="M2109,3645.1s296.616-84.209,489.719-326.931S3079,2986.28,3079,2986.28" transform="translate(-2109 -2621.404)" fill="none" stroke="#000" stroke-width="2"/>
      <path id="Path_235" data-name="Path 235" d="M2572.566,2987.5l71.9-25.788,4.689-60.927s54.7-57.828-4.689-107.06-99.246,8.6-107.842,22.662c-6.252,11.722-6.252,42.98-6.252,42.98s-3.907,14.848-17.974,34.385c0,10.354,17.974,7.033,17.974,7.033s-4.689,29.7,6.252,35.947,31.259,0,31.259,0Z" transform="translate(-2109 -2689.765)" fill="#f9e4bb" stroke="#707070" stroke-width="1"/>
      <path id="Path_236" data-name="Path 236" d="M2659.429,2876.081s-12.369,48.116-52.263,53.564-57.856-1.58-57.856-1.58l-9.564,22.1s59.152,6.063,83.3-1.563,57.382-37.66,53.183-68.167C2660.479,2871.723,2659.429,2876.081,2659.429,2876.081Z" transform="translate(-2113.426 -2651.001)" fill="red" stroke="#707070" stroke-width="1"/>
      <path id="Path_237" data-name="Path 237" d="M2549.9,2719l123.47,54.4,107.06-50.795L2549.9,2614.765Z" transform="translate(-2109 -2614.765)" fill="red" stroke="#777776" stroke-width="1"/>
      <path id="Path_238" data-name="Path 238" d="M2567.877,2622.58l21.1,85.961,67.205-43.762,10.941,74.239,89.086-27.351Z" transform="translate(-2109 -2614.765)" fill="#5072b5" stroke="#707070" stroke-width="1"/>
      <path id="Path_239" data-name="Path 239" d="M2567.877,2731.2s3.907,17.192-14.066,17.192-17.192-17.192-17.192-17.192,3.126-14.848,11.722-13.285,12.5-2.344,13.285,0,4.689,17.192,0,17.974-6.251,9.377-13.285,0,5.47-8.6,5.47-8.6Z" transform="translate(-2109 -2614.765)" fill="#dce496" stroke="#707070" stroke-width="1"/>
      <path id="Path_240" data-name="Path 240" d="M2563.189,2722.607s.782,13.285,7.815,20.318,102.371,49.232,102.371,49.232,9.377-.781,11.722-10.159,16.411-4.689,16.411-4.689l-21.881-8.6Z" transform="translate(-2109 -2614.765)" fill="#dce496" stroke="#707070" stroke-width="1"/>
      <path id="Path_242" data-name="Path 242" d="M2662.043,2877.488l71.735,290.79s-47.062,54.147-71.735,70-57.69-249.606-57.69-249.606l46.223,264.133s-117.54,145.273-142.632,154.518-43.582-451.668,35.658-496.57C2642.653,2927.917,2662.043,2877.488,2662.043,2877.488Z" transform="translate(-2109 -2614.765)" fill="red" stroke="#707070" stroke-width="1"/>
    </g>
    <g id="Component_2_2" data-name="Component 2 – 2" transform="translate(1025.859 1343.149) rotate(179)">
      <path id="Path_234-2" data-name="Path 234" d="M2109,3645.1s296.616-84.209,489.719-326.931S3079,2986.28,3079,2986.28" transform="translate(-2109 -2621.404)" fill="none" stroke="#000" stroke-width="2"/>
      <path id="Path_235-2" data-name="Path 235" d="M2572.566,2987.5l71.9-25.788,4.689-60.927s54.7-57.828-4.689-107.06-99.246,8.6-107.842,22.662c-6.252,11.722-6.252,42.98-6.252,42.98s-3.907,14.848-17.974,34.385c0,10.354,17.974,7.033,17.974,7.033s-4.689,29.7,6.252,35.947,31.259,0,31.259,0Z" transform="translate(-2109 -2689.765)" fill="#f9e4bb" stroke="#707070" stroke-width="1"/>
      <path id="Path_236-2" data-name="Path 236" d="M2659.429,2876.081s-12.369,48.116-52.263,53.564-57.856-1.58-57.856-1.58l-9.564,22.1s59.152,6.063,83.3-1.563,57.382-37.66,53.183-68.167C2660.479,2871.723,2659.429,2876.081,2659.429,2876.081Z" transform="translate(-2113.426 -2651.001)" fill="red" stroke="#707070" stroke-width="1"/>
      <path id="Path_237-2" data-name="Path 237" d="M2549.9,2719l123.47,54.4,107.06-50.795L2549.9,2614.765Z" transform="translate(-2109 -2614.765)" fill="red" stroke="#777776" stroke-width="1"/>
      <path id="Path_238-2" data-name="Path 238" d="M2567.877,2622.58l21.1,85.961,67.205-43.762,10.941,74.239,89.086-27.351Z" transform="translate(-2109 -2614.765)" fill="#5072b5" stroke="#707070" stroke-width="1"/>
      <path id="Path_239-2" data-name="Path 239" d="M2567.877,2731.2s3.907,17.192-14.066,17.192-17.192-17.192-17.192-17.192,3.126-14.848,11.722-13.285,12.5-2.344,13.285,0,4.689,17.192,0,17.974-6.251,9.377-13.285,0,5.47-8.6,5.47-8.6Z" transform="translate(-2109 -2614.765)" fill="#dce496" stroke="#707070" stroke-width="1"/>
      <path id="Path_240-2" data-name="Path 240" d="M2563.189,2722.607s.782,13.285,7.815,20.318,102.371,49.232,102.371,49.232,9.377-.781,11.722-10.159,16.411-4.689,16.411-4.689l-21.881-8.6Z" transform="translate(-2109 -2614.765)" fill="#dce496" stroke="#707070" stroke-width="1"/>
      <path id="Path_242-2" data-name="Path 242" d="M2662.043,2877.488l71.735,290.79s-47.062,54.147-71.735,70-57.69-249.606-57.69-249.606l46.223,264.133s-117.54,145.273-142.632,154.518-43.582-451.668,35.658-496.57C2642.653,2927.917,2662.043,2877.488,2662.043,2877.488Z" transform="translate(-2109 -2614.765)" fill="red" stroke="#707070" stroke-width="1"/>
    </g>
    <path id="Path_260" data-name="Path 260" d="M96,409.658C133.618,368.038,176.839,288,176.839,288s40.019,80.038,74.435,121.658c-35.217,49.624-74.435,134.464-74.435,134.464S127.215,452.879,96,409.658Z" transform="translate(978.274 1086.236) rotate(180)" fill="red" stroke="red" stroke-width="1"/>
    <path id="Path_261" data-name="Path 261" d="M96,409.658C133.618,368.038,176.839,288,176.839,288s40.019,80.038,74.435,121.658c-35.217,49.624-74.435,134.464-74.435,134.464S127.215,452.879,96,409.658Z" transform="translate(31 296.114)" fill="red" stroke="red" stroke-width="1"/>
  </g>
<text x="1517" y="2235" font-size="200">The Jack of Diomonds</text></g></svg>
