<svg id="Component_30_1" data-name="Component 30 – 1" xmlns="http://www.w3.org/2000/svg" width="1517" height="2235" viewBox="0 0 303 427"> <g transform="scale(0.06 0.06)">
  <g id="Rectangle_45" data-name="Rectangle 45" fill="#fff" stroke="#000" stroke-width="5">
    <rect width="1517" height="2235" rx="81" stroke="none"/>
    <rect x="2.5" y="2.5" width="1512" height="2230" rx="78.5" fill="none"/>
  </g>
  <path id="Path_175" data-name="Path 175" d="M96,409.658C133.618,368.038,176.839,288,176.839,288s40.019,80.038,74.435,121.658c-35.217,49.624-74.435,134.464-74.435,134.464S127.215,452.879,96,409.658Z" transform="translate(-30 -47.121)" fill="red" stroke="red" stroke-width="1"/>
  <path id="Path_176" data-name="Path 176" d="M96,412.286C134.431,369.767,178.585,288,178.585,288s40.884,81.767,76.044,124.286c-35.978,50.7-76.044,137.369-76.044,137.369S127.889,456.441,96,412.286Z" transform="translate(1555.297 2258.578) rotate(180)" fill="red" stroke="red" stroke-width="1"/>
  <text id="A" transform="translate(92 198)" fill="red" font-size="175" font-family="TrebuchetMS, Trebuchet MS"><tspan x="0" y="0">Q</tspan></text>
  <text id="A-2" data-name="A" transform="matrix(-1, 0.017, -0.017, -1, 1429.901, 2028.111)" fill="red" font-size="175" font-family="TrebuchetMS, Trebuchet MS"><tspan x="0" y="0">Q</tspan></text>
  <g id="Component_8_2" data-name="Component 8 – 2" transform="translate(248 503.473)">
    <g id="Component_5_1" data-name="Component 5 – 1">
      <path id="Path_234" data-name="Path 234" d="M2109,3645.1s296.616-84.209,489.719-326.931S3079,2986.28,3079,2986.28" transform="translate(-2109 -2678.113)" fill="none" stroke="#000" stroke-width="2"/>
      <path id="Path_235" data-name="Path 235" d="M2572.566,2987.5l71.9-25.788,4.689-60.927s54.7-57.828-4.689-107.06-99.246,8.6-107.842,22.662c-6.252,11.722-6.252,42.98-6.252,42.98s-3.907,14.848-17.974,34.385c0,10.354,17.974,7.033,17.974,7.033s-4.689,29.7,6.252,35.947,31.259,0,31.259,0Z" transform="translate(-2109 -2746.474)" fill="#f9e4bb" stroke="#707070" stroke-width="1"/>
      <path id="Path_242" data-name="Path 242" d="M2662.043,2877.488l71.735,290.79s-47.062,54.147-71.735,70-57.69-249.606-57.69-249.606l46.223,264.133s-117.54,145.273-142.632,154.518-43.582-451.668,35.658-496.57C2642.653,2927.917,2662.043,2877.488,2662.043,2877.488Z" transform="translate(-2109 -2671.474)" fill="red" stroke="#707070" stroke-width="1"/>
      <path id="Path_244" data-name="Path 244" d="M132.709,2842.949s44.182-10.779,79.929,0,63.059,67.689,63.059,67.689l-46.19,19.4-89.97-39.234Z" transform="translate(311.85 -2820.813)" fill="#5072b5" stroke="#707070" stroke-width="1"/>
      <path id="Path_246" data-name="Path 246" d="M135.518,2891.415s9.959-15.917,27.033-22.408,41.26-3.557,41.26-3.557h3.2l-3.2,3.557s-23.742-1.512-39.837,5.335-24.543,22.053-24.543,22.053l-7.114-1.423Z" transform="translate(324 -2845.474)" fill="#fff" stroke="#707070" stroke-width="1"/>
      <path id="Path_247" data-name="Path 247" d="M201.586,2891.049s-9.649-15.7-26.191-22.1-39.976-3.508-39.976-3.508h-3.1l3.1,3.508s23-1.491,38.6,5.262,23.779,21.75,23.779,21.75l6.892-1.4Z" transform="matrix(0.545, 0.839, -0.839, 0.545, 2863.227, -1651.758)" fill="#fff" stroke="#707070" stroke-width="1"/>
      <path id="Path_236" data-name="Path 236" d="M2655.182,2875.7s-11.93,31.35-50.409,34.9-55.8-1.029-55.8-1.029l-9.225,14.4s57.052,3.95,80.342-1.019,55.346-24.537,51.3-44.414C2656.194,2872.862,2655.182,2875.7,2655.182,2875.7Z" transform="translate(-2113.426 -2680.717)" fill="red" stroke="#707070" stroke-width="1"/>
      <path id="Path_253" data-name="Path 253" d="M2665.578,2866.223s-9.566,34.957-47.484,37.813-67.13,2.187-67.13,2.187l-3.846,3.846s55.126,2.073,78.076-1.923,51.3-24.01,47.307-40C2657.534,2863.577,2665.578,2866.223,2665.578,2866.223Z" transform="translate(-2118.426 -2671.563)" fill="#5072b5" stroke="#707070" stroke-width="1"/>
      <path id="Path_255" data-name="Path 255" d="M103.934,4546.909v19.435l59.995,21.125s23.66,6.76,23.66,21.125,16.9,44.785,16.9,44.785l32.955,107.314s31.265-85.344,23.66-107.314-32.11-65.91-32.11-65.91l-112.384-46.475Z" transform="translate(336 -4474.474)" fill="#dce496" stroke="#707070" stroke-width="1"/>
      <path id="Path_254" data-name="Path 254" d="M95.484,4531.7s-9.295-3.379-11.83,8.45,0,16.9,0,16.9l11.83,8.45,16.9-20.28Z" transform="translate(336 -4474.474)" fill="#dce496" stroke="#707070" stroke-width="1"/>
      <path id="Path_245" data-name="Path 245" d="M100.158,2906.572s17.718,25.066,54.466,38.8,31.5,14.765,81.37,26.783c5.25-.344,8.859-4.807,4.922-11.675-23.3-8.927-49.872-19.229-78.746-31.934s-54.466-35.711-54.466-35.711-3.609.343-7.546,5.837S100.158,2906.572,100.158,2906.572Z" transform="translate(330 -2853.474)" fill="#fff" stroke="#707070" stroke-width="1"/>
      <path id="Path_256" data-name="Path 256" d="M103.934,4513.836l5.565-18.875s39,30.5,60.5,39,81.5,29.5,81.5,29.5l-17,18s-37-12.5-78-31.5S103.934,4513.836,103.934,4513.836Z" transform="translate(336 -4472.474)" fill="red" stroke="#707070" stroke-width="1"/>
      <path id="Path_257" data-name="Path 257" d="M236.1,4583.7l9.237-9.773s-51.889-13.882-80.791-28.9-58.033-38.917-58.033-38.917l13.2-28.22-6.827-3.414-11.834,39.144s16.613,22.075,59.171,39.827S236.1,4583.7,236.1,4583.7Z" transform="translate(336 -4474.474)" fill="#efef3c" stroke="#707070" stroke-width="1"/>
    </g>
    <path id="Path_258" data-name="Path 258" d="M96,409.658C133.618,368.038,176.839,288,176.839,288s40.019,80.038,74.435,121.658c-35.217,49.624-74.435,134.464-74.435,134.464S127.215,452.879,96,409.658Z" transform="translate(31 254.405)" fill="red" stroke="red" stroke-width="1"/>
    <path id="Path_263" data-name="Path 263" d="M96,409.658C133.618,368.038,176.839,288,176.839,288s40.019,80.038,74.435,121.658c-35.217,49.624-74.435,134.464-74.435,134.464S127.215,452.879,96,409.658Z" transform="translate(971.274 1053.527) rotate(180)" fill="red" stroke="red" stroke-width="1"/>
    <g id="Component_5_2" data-name="Component 5 – 2" transform="translate(1022 1228.982) rotate(180)">
      <path id="Path_234-2" data-name="Path 234" d="M2109,3645.1s296.616-84.209,489.719-326.931S3079,2986.28,3079,2986.28" transform="translate(-2109 -2678.113)" fill="none" stroke="#000" stroke-width="2"/>
      <path id="Path_235-2" data-name="Path 235" d="M2572.566,2987.5l71.9-25.788,4.689-60.927s54.7-57.828-4.689-107.06-99.246,8.6-107.842,22.662c-6.252,11.722-6.252,42.98-6.252,42.98s-3.907,14.848-17.974,34.385c0,10.354,17.974,7.033,17.974,7.033s-4.689,29.7,6.252,35.947,31.259,0,31.259,0Z" transform="translate(-2109 -2746.474)" fill="#f9e4bb" stroke="#707070" stroke-width="1"/>
      <path id="Path_242-2" data-name="Path 242" d="M2662.043,2877.488l71.735,290.79s-47.062,54.147-71.735,70-57.69-249.606-57.69-249.606l46.223,264.133s-117.54,145.273-142.632,154.518-43.582-451.668,35.658-496.57C2642.653,2927.917,2662.043,2877.488,2662.043,2877.488Z" transform="translate(-2109 -2671.474)" fill="red" stroke="#707070" stroke-width="1"/>
      <path id="Path_244-2" data-name="Path 244" d="M132.709,2842.949s44.182-10.779,79.929,0,63.059,67.689,63.059,67.689l-46.19,19.4-89.97-39.234Z" transform="translate(311.85 -2820.813)" fill="#5072b5" stroke="#707070" stroke-width="1"/>
      <path id="Path_246-2" data-name="Path 246" d="M135.518,2891.415s9.959-15.917,27.033-22.408,41.26-3.557,41.26-3.557h3.2l-3.2,3.557s-23.742-1.512-39.837,5.335-24.543,22.053-24.543,22.053l-7.114-1.423Z" transform="translate(324 -2845.474)" fill="#fff" stroke="#707070" stroke-width="1"/>
      <path id="Path_247-2" data-name="Path 247" d="M201.586,2891.049s-9.649-15.7-26.191-22.1-39.976-3.508-39.976-3.508h-3.1l3.1,3.508s23-1.491,38.6,5.262,23.779,21.75,23.779,21.75l6.892-1.4Z" transform="matrix(0.545, 0.839, -0.839, 0.545, 2863.227, -1651.758)" fill="#fff" stroke="#707070" stroke-width="1"/>
      <path id="Path_236-2" data-name="Path 236" d="M2655.182,2875.7s-11.93,31.35-50.409,34.9-55.8-1.029-55.8-1.029l-9.225,14.4s57.052,3.95,80.342-1.019,55.346-24.537,51.3-44.414C2656.194,2872.862,2655.182,2875.7,2655.182,2875.7Z" transform="translate(-2113.426 -2680.717)" fill="red" stroke="#707070" stroke-width="1"/>
      <path id="Path_253-2" data-name="Path 253" d="M2665.578,2866.223s-9.566,34.957-47.484,37.813-67.13,2.187-67.13,2.187l-3.846,3.846s55.126,2.073,78.076-1.923,51.3-24.01,47.307-40C2657.534,2863.577,2665.578,2866.223,2665.578,2866.223Z" transform="translate(-2118.426 -2671.563)" fill="#5072b5" stroke="#707070" stroke-width="1"/>
      <path id="Path_255-2" data-name="Path 255" d="M103.934,4546.909v19.435l59.995,21.125s23.66,6.76,23.66,21.125,16.9,44.785,16.9,44.785l32.955,107.314s31.265-85.344,23.66-107.314-32.11-65.91-32.11-65.91l-112.384-46.475Z" transform="translate(336 -4474.474)" fill="#dce496" stroke="#707070" stroke-width="1"/>
      <path id="Path_254-2" data-name="Path 254" d="M95.484,4531.7s-9.295-3.379-11.83,8.45,0,16.9,0,16.9l11.83,8.45,16.9-20.28Z" transform="translate(336 -4474.474)" fill="#dce496" stroke="#707070" stroke-width="1"/>
      <path id="Path_245-2" data-name="Path 245" d="M100.158,2906.572s17.718,25.066,54.466,38.8,31.5,14.765,81.37,26.783c5.25-.344,8.859-4.807,4.922-11.675-23.3-8.927-49.872-19.229-78.746-31.934s-54.466-35.711-54.466-35.711-3.609.343-7.546,5.837S100.158,2906.572,100.158,2906.572Z" transform="translate(330 -2853.474)" fill="#fff" stroke="#707070" stroke-width="1"/>
      <path id="Path_256-2" data-name="Path 256" d="M103.934,4513.836l5.565-18.875s39,30.5,60.5,39,81.5,29.5,81.5,29.5l-17,18s-37-12.5-78-31.5S103.934,4513.836,103.934,4513.836Z" transform="translate(336 -4472.474)" fill="red" stroke="#707070" stroke-width="1"/>
      <path id="Path_257-2" data-name="Path 257" d="M236.1,4583.7l9.237-9.773s-51.889-13.882-80.791-28.9-58.033-38.917-58.033-38.917l13.2-28.22-6.827-3.414-11.834,39.144s16.613,22.075,59.171,39.827S236.1,4583.7,236.1,4583.7Z" transform="translate(336 -4474.474)" fill="#efef3c" stroke="#707070" stroke-width="1"/>
    </g>
  </g>
<text x="1517" y="2235" font-size="200">The Queen of Diomonds</text></g></svg>
