<svg id="Component_28_1" data-name="Component 28 – 1" xmlns="http://www.w3.org/2000/svg" width="1517" height="2235" viewBox="0 0 303 427"> <g transform="scale(0.06 0.06)">
  <g id="Rectangle_37" data-name="Rectangle 37" fill="#fff" stroke="#000" stroke-width="5">
    <rect width="1517" height="2235" rx="81" stroke="none"/>
    <rect x="2.5" y="2.5" width="1512" height="2230" rx="78.5" fill="none"/>
  </g>
  <path id="Path_145" data-name="Path 145" d="M96,409.658C133.618,368.038,176.839,288,176.839,288s40.019,80.038,74.435,121.658c-35.217,49.624-74.435,134.464-74.435,134.464S127.215,452.879,96,409.658Z" transform="translate(-30 -47.122)" fill="red" stroke="red" stroke-width="1"/>
  <path id="Path_146" data-name="Path 146" d="M96,412.286C134.431,369.767,178.585,288,178.585,288s40.884,81.767,76.044,124.286c-35.978,50.7-76.044,137.369-76.044,137.369S127.889,456.441,96,412.286Z" transform="translate(1555.297 2258.578) rotate(180)" fill="red" stroke="red" stroke-width="1"/>
  <text id="A" transform="translate(92 198)" fill="red" font-size="175" font-family="TrebuchetMS, Trebuchet MS"><tspan x="0" y="0">10</tspan></text>
  <text id="A-2" data-name="A" transform="matrix(-1, 0.017, -0.017, -1, 1429.901, 2028.11)" fill="red" font-size="175" font-family="TrebuchetMS, Trebuchet MS"><tspan x="0" y="0">10</tspan></text>
  <path id="Path_345" data-name="Path 345" d="M96,508.4C164.149,433,242.448,288,242.448,288s72.5,145,134.848,220.4c-63.8,89.9-134.848,243.6-134.848,243.6S152.549,586.7,96,508.4Z" transform="translate(181 394.515)" fill="red" stroke="red" stroke-width="1"/>
  <path id="Path_346" data-name="Path 346" d="M96,497.186C160.682,425.622,235,288,235,288s68.811,137.622,127.989,209.185C302.433,582.511,235,728.391,235,728.391S149.673,571.5,96,497.186Z" transform="translate(652.297 2406.578) rotate(180)" fill="red" stroke="red" stroke-width="1"/>
  <path id="Path_347" data-name="Path 347" d="M96,508.4C164.149,433,242.448,288,242.448,288s72.5,145,134.848,220.4c-63.8,89.9-134.848,243.6-134.848,243.6S152.549,586.7,96,508.4Z" transform="translate(180 892.515)" fill="red" stroke="red" stroke-width="1"/>
  <path id="Path_348" data-name="Path 348" d="M96,508.4C164.149,433,242.448,288,242.448,288s72.5,145,134.848,220.4c-63.8,89.9-134.848,243.6-134.848,243.6S152.549,586.7,96,508.4Z" transform="translate(524 1127.515)" fill="red" stroke="red" stroke-width="1"/>
  <path id="Path_349" data-name="Path 349" d="M96,508.4C164.149,433,242.448,288,242.448,288s72.5,145,134.848,220.4c-63.8,89.9-134.848,243.6-134.848,243.6S152.549,586.7,96,508.4Z" transform="translate(193 -103.485)" fill="red" stroke="red" stroke-width="1"/>
  <path id="Path_350" data-name="Path 350" d="M96,508.4C164.149,433,242.448,288,242.448,288s72.5,145,134.848,220.4c-63.8,89.9-134.848,243.6-134.848,243.6S152.549,586.7,96,508.4Z" transform="translate(866 394.515)" fill="red" stroke="red" stroke-width="1"/>
  <path id="Path_351" data-name="Path 351" d="M96,497.186C160.682,425.622,235,288,235,288s68.811,137.622,127.989,209.185C302.433,582.511,235,728.391,235,728.391S149.673,571.5,96,497.186Z" transform="translate(1337.297 2406.578) rotate(180)" fill="red" stroke="red" stroke-width="1"/>
  <path id="Path_352" data-name="Path 352" d="M96,508.4C164.149,433,242.448,288,242.448,288s72.5,145,134.848,220.4c-63.8,89.9-134.848,243.6-134.848,243.6S152.549,586.7,96,508.4Z" transform="translate(865 892.515)" fill="red" stroke="red" stroke-width="1"/>
  <path id="Path_353" data-name="Path 353" d="M96,508.4C164.149,433,242.448,288,242.448,288s72.5,145,134.848,220.4c-63.8,89.9-134.848,243.6-134.848,243.6S152.549,586.7,96,508.4Z" transform="translate(878 -103.485)" fill="red" stroke="red" stroke-width="1"/>
  <path id="Path_354" data-name="Path 354" d="M96,508.4C164.149,433,242.448,288,242.448,288s72.5,145,134.848,220.4c-63.8,89.9-134.848,243.6-134.848,243.6S152.549,586.7,96,508.4Z" transform="translate(530 167.515)" fill="red" stroke="red" stroke-width="1"/>
<text x="1517" y="2235" font-size="200">The 10 of Diomonds</text></g></svg>
