<svg id="Component_32_1" data-name="Component 32 – 1" xmlns="http://www.w3.org/2000/svg" width="1517" height="2235" viewBox="0 0 303 427"> <g transform="scale(0.06 0.06)">
  <g id="Rectangle_2" data-name="Rectangle 2" fill="#fff" stroke="#000" stroke-width="5">
    <rect width="1517" height="2235" rx="81" stroke="none"/>
    <rect x="2.5" y="2.5" width="1512" height="2230" rx="78.5" fill="none"/>
  </g>
  <path id="Path_5" data-name="Path 5" d="M217.343,462.991c-112.586-204.8-381.72-17.156-190.86,173.7l190.86,190.86L406.058,636.7C594.774,445.835,335.29,265.7,217.343,462.991Z" transform="translate(552 516.444)" fill="red" stroke="red" stroke-width="1"/>
  <path id="Path_9" data-name="Path 9" d="M73.513,413.3C23.84,322.945-94.9,405.733-10.695,489.94l84.207,84.207,83.261-84.207C240.035,405.733,125.551,326.257,73.513,413.3Z" transform="translate(1405.162 2366.07) rotate(180)" fill="red" stroke="red" stroke-width="1"/>
  <text id="A" transform="translate(120 198)" fill="red" font-size="175" font-family="TrebuchetMS, Trebuchet MS"><tspan x="0" y="0">A</tspan></text>
  <text id="A-2" data-name="A" transform="matrix(-1, 0.017, -0.017, -1, 1382.045, 2049.111)" fill="red" font-size="175" font-family="TrebuchetMS, Trebuchet MS"><tspan x="0" y="0">A</tspan></text>
  <path id="Path_24" data-name="Path 24" d="M68.6,411.606c-47.525-86.449-161.131-7.242-80.565,73.324L68.6,565.495l79.66-80.566C227.922,404.364,118.389,328.324,68.6,411.606Z" transform="translate(103.575 -137.556)" fill="red" stroke="red" stroke-width="1"/>
<text x="1517" y="2235" font-size="200">The Ace of Hearts</text></g></svg>
