<svg id="Component_40_1" data-name="Component 40 – 1" xmlns="http://www.w3.org/2000/svg" width="1517" height="2235" viewBox="0 0 303 427"> <g transform="scale(0.06 0.06)">
  <g id="Rectangle_71" data-name="Rectangle 71" fill="#fff" stroke="#000" stroke-width="5">
    <rect width="1517" height="2235" rx="81" stroke="none"/>
    <rect x="2.5" y="2.5" width="1512" height="2230" rx="78.5" fill="none"/>
  </g>
  <path id="Path_583" data-name="Path 583" d="M73.513,413.3C23.84,322.945-94.9,405.733-10.695,489.94l84.207,84.207,83.261-84.207C240.035,405.733,125.551,326.257,73.513,413.3Z" transform="translate(1405.162 2366.07) rotate(180)" fill="red" stroke="red" stroke-width="1"/>
  <text id="A" transform="translate(120 198)" fill="red" font-size="175" font-family="TrebuchetMS, Trebuchet MS"><tspan x="0" y="0">9</tspan></text>
  <text id="A-2" data-name="A" transform="matrix(-1, 0.017, -0.017, -1, 1382.045, 2049.11)" fill="red" font-size="175" font-family="TrebuchetMS, Trebuchet MS"><tspan x="0" y="0">9</tspan></text>
  <path id="Path_584" data-name="Path 584" d="M68.6,411.606c-47.525-86.449-161.131-7.242-80.565,73.324L68.6,565.495l79.66-80.566C227.922,404.364,118.389,328.324,68.6,411.606Z" transform="translate(103.575 -137.556)" fill="red" stroke="red" stroke-width="1"/>
  <path id="Path_585" data-name="Path 585" d="M101.464,422.959c-61.9-112.6-209.867-9.432-104.934,95.5L101.464,623.394,205.219,518.46C308.973,413.526,166.311,314.488,101.464,422.959Z" transform="translate(492.162 2192.863) rotate(180)" fill="red" stroke="red" stroke-width="1"/>
  <path id="Path_586" data-name="Path 586" d="M107.179,424.933C42.78,307.789-111.164,415.12-1.993,524.291L107.179,633.462,215.123,524.291C323.068,415.12,174.644,312.082,107.179,424.933Z" transform="translate(284.924 -7.462)" fill="red" stroke="red" stroke-width="1"/>
  <path id="Path_587" data-name="Path 587" d="M106.677,424.759c-64.179-116.745-217.6-9.78-108.8,99.019l108.8,108.8,107.577-108.8C321.83,414.98,173.912,312.293,106.677,424.759Z" transform="translate(1216.238 2202.048) rotate(180)" fill="red" stroke="red" stroke-width="1"/>
  <path id="Path_588" data-name="Path 588" d="M111.719,426.5C45.334,305.744-113.357,416.386-.819,528.924L111.719,641.462,222.993,528.924C334.267,416.386,181.265,310.17,111.719,426.5Z" transform="translate(1004 -7.463)" fill="red" stroke="red" stroke-width="1"/>
  <path id="Path_589" data-name="Path 589" d="M106.677,424.759c-64.179-116.745-217.6-9.78-108.8,99.019l108.8,108.8,107.577-108.8C321.83,414.98,173.912,312.293,106.677,424.759Z" transform="translate(279.924 367.422)" fill="red" stroke="red" stroke-width="1"/>
  <path id="Path_590" data-name="Path 590" d="M106.677,424.759c-64.179-116.745-217.6-9.78-108.8,99.019l108.8,108.8,107.577-108.8C321.83,414.98,173.912,312.293,106.677,424.759Z" transform="translate(1004 367.422)" fill="red" stroke="red" stroke-width="1"/>
  <path id="Path_604" data-name="Path 604" d="M106.677,424.759c-64.179-116.745-217.6-9.78-108.8,99.019l108.8,108.8,107.577-108.8C321.83,414.98,173.912,312.293,106.677,424.759Z" transform="translate(492.238 1788.048) rotate(180)" fill="red" stroke="red" stroke-width="1"/>
  <path id="Path_648" data-name="Path 648" d="M106.677,424.759c-64.179-116.745-217.6-9.78-108.8,99.019l108.8,108.8,107.577-108.8C321.83,414.98,173.912,312.293,106.677,424.759Z" transform="translate(1216.238 1788.048) rotate(180)" fill="red" stroke="red" stroke-width="1"/>
  <path id="Path_649" data-name="Path 649" d="M106.677,424.759c-64.179-116.745-217.6-9.78-108.8,99.019l108.8,108.8,107.577-108.8C321.83,414.98,173.912,312.293,106.677,424.759Z" transform="translate(652 614.422)" fill="red" stroke="red" stroke-width="1"/>
<text x="1517" y="2235" font-size="200">The 9 of Hearts</text></g></svg>
