<svg id="Component_45_1" data-name="Component 45 – 1" xmlns="http://www.w3.org/2000/svg" width="1517" height="2235" viewBox="0 0 303 427"> <g transform="scale(0.06 0.06)">
  <g id="Rectangle_3" data-name="Rectangle 3" fill="#fff" stroke="#000" stroke-width="5">
    <rect width="1517" height="2235" rx="81" stroke="none"/>
    <rect x="2.5" y="2.5" width="1512" height="2230" rx="78.5" fill="none"/>
  </g>
  <path id="Union_2" data-name="Union 2" d="M91.709,222.105s9.118-18.7,14.215-59.646c-52.078,75.414-156.359-.3-77.3-80.409L109.6,0l81.9,82.05c80.631,80.783-30.071,160.219-79.615,78.626,5.263,42.525,16.492,61.429,16.492,61.429Z" transform="translate(86.952 240.895)" stroke="#000" stroke-width="1"/>
  <path id="Union_3" data-name="Union 3" d="M97.544,236.105s9.7-19.882,15.12-63.406c-55.391,80.168-166.307-.316-82.213-85.477L116.578,0l87.106,87.222C289.445,173.1,171.7,257.54,119,170.8c5.6,45.206,17.541,65.3,17.541,65.3Z" transform="translate(1459 2016) rotate(180)" stroke="#000" stroke-width="1"/>
  <text id="A" transform="translate(145 198)" font-size="175" font-family="TrebuchetMS, Trebuchet MS"><tspan x="0" y="0">A</tspan></text>
  <text id="A-2" data-name="A" transform="matrix(-1, 0.017, -0.017, -1, 1392.045, 2055.111)" font-size="175" font-family="TrebuchetMS, Trebuchet MS"><tspan x="0" y="0">A</tspan></text>
  <path id="Union_4" data-name="Union 4" d="M193.4,468.105s19.228-39.419,29.978-125.709c-109.825,158.942-329.739-.626-163-169.469L231.139,0,403.846,172.928c170.04,170.257-63.417,337.674-167.9,165.712,11.1,89.626,34.779,129.466,34.779,129.466Z" transform="translate(526.952 901.895)" stroke="#000" stroke-width="1"/>
<text x="1517" y="2235" font-size="200">The Ace of Spades</text></g></svg>
