<svg id="Component_56_1" data-name="Component 56 – 1" xmlns="http://www.w3.org/2000/svg" width="1517" height="2235" viewBox="0 0 303 427"> <g transform="scale(0.06 0.06)">
  <g id="Rectangle_47" data-name="Rectangle 47" fill="#fff" stroke="#000" stroke-width="5">
    <rect width="1517" height="2235" rx="81" stroke="none"/>
    <rect x="2.5" y="2.5" width="1512" height="2230" rx="78.5" fill="none"/>
  </g>
  <path id="Union_35" data-name="Union 35" d="M91.709,222.105s9.118-18.7,14.215-59.646c-52.078,75.414-156.359-.3-77.3-80.409L109.6,0l81.9,82.05c80.631,80.783-30.071,160.219-79.615,78.626,5.263,42.525,16.492,61.429,16.492,61.429Z" transform="translate(86.952 240.895)" stroke="#000" stroke-width="1"/>
  <path id="Union_36" data-name="Union 36" d="M97.544,236.105s9.7-19.882,15.12-63.406c-55.391,80.168-166.307-.316-82.213-85.477L116.578,0l87.106,87.222C289.445,173.1,171.7,257.54,119,170.8c5.6,45.206,17.541,65.3,17.541,65.3Z" transform="translate(1459 2016) rotate(180)" stroke="#000" stroke-width="1"/>
  <text id="A" transform="translate(145 198)" font-size="175" font-family="TrebuchetMS, Trebuchet MS"><tspan x="0" y="0">Q</tspan></text>
  <text id="A-2" data-name="A" transform="matrix(-1, 0.017, -0.017, -1, 1392.045, 2055.111)" font-size="175" font-family="TrebuchetMS, Trebuchet MS"><tspan x="0" y="0">Q</tspan></text>
  <g id="Component_12_3" data-name="Component 12 – 3" transform="translate(307 503.473)">
    <path id="Path_234" data-name="Path 234" d="M2109,3645.1s296.616-84.209,489.719-326.931S3079,2986.28,3079,2986.28" transform="translate(-2109 -2678.112)" fill="none" stroke="#000" stroke-width="2"/>
    <path id="Path_235" data-name="Path 235" d="M2572.566,2987.5l71.9-25.788,4.689-60.927s54.7-57.828-4.689-107.06-99.246,8.6-107.842,22.662c-6.252,11.722-6.252,42.98-6.252,42.98s-3.907,14.848-17.974,34.385c0,10.354,17.974,7.033,17.974,7.033s-4.689,29.7,6.252,35.947,31.259,0,31.259,0Z" transform="translate(-2109 -2746.474)" fill="#f9e4bb" stroke="#707070" stroke-width="1"/>
    <path id="Path_242" data-name="Path 242" d="M2662.043,2877.488l71.735,290.79s-47.062,54.147-71.735,70-57.69-249.606-57.69-249.606l46.223,264.133s-117.54,145.273-142.632,154.518-43.582-451.668,35.658-496.57C2642.653,2927.917,2662.043,2877.488,2662.043,2877.488Z" transform="translate(-2109 -2671.474)" stroke="#707070" stroke-width="1"/>
    <path id="Path_244" data-name="Path 244" d="M132.709,2842.949s44.182-10.779,79.929,0,63.059,67.689,63.059,67.689l-46.19,19.4-89.97-39.234Z" transform="translate(311.85 -2820.813)" fill="#5072b5" stroke="#707070" stroke-width="1"/>
    <path id="Path_246" data-name="Path 246" d="M135.518,2891.415s9.959-15.917,27.033-22.408,41.26-3.557,41.26-3.557h3.2l-3.2,3.557s-23.742-1.512-39.837,5.335-24.543,22.053-24.543,22.053l-7.114-1.423Z" transform="translate(324 -2845.474)" fill="#fff" stroke="#707070" stroke-width="1"/>
    <path id="Path_247" data-name="Path 247" d="M201.586,2891.049s-9.649-15.7-26.191-22.1-39.976-3.508-39.976-3.508h-3.1l3.1,3.508s23-1.491,38.6,5.262,23.779,21.75,23.779,21.75l6.892-1.4Z" transform="matrix(0.545, 0.839, -0.839, 0.545, 2863.227, -1651.759)" fill="#fff" stroke="#707070" stroke-width="1"/>
    <path id="Path_236" data-name="Path 236" d="M2655.182,2875.7s-11.93,31.35-50.409,34.9-55.8-1.029-55.8-1.029l-9.225,14.4s57.052,3.95,80.342-1.019,55.346-24.537,51.3-44.414C2656.194,2872.862,2655.182,2875.7,2655.182,2875.7Z" transform="translate(-2113.426 -2680.717)" stroke="#707070" stroke-width="1"/>
    <path id="Path_253" data-name="Path 253" d="M2665.578,2866.223s-9.566,34.957-47.484,37.813-67.13,2.187-67.13,2.187l-3.846,3.846s55.126,2.073,78.076-1.923,51.3-24.01,47.307-40C2657.534,2863.577,2665.578,2866.223,2665.578,2866.223Z" transform="translate(-2118.426 -2671.563)" fill="#5072b5" stroke="#707070" stroke-width="1"/>
    <path id="Path_255" data-name="Path 255" d="M103.934,4546.909v19.435l59.995,21.125s23.66,6.76,23.66,21.125,16.9,44.785,16.9,44.785l32.955,107.314s31.265-85.344,23.66-107.314-32.11-65.91-32.11-65.91l-112.384-46.475Z" transform="translate(336 -4474.474)" fill="#dce496" stroke="#707070" stroke-width="1"/>
    <path id="Path_254" data-name="Path 254" d="M95.484,4531.7s-9.295-3.379-11.83,8.45,0,16.9,0,16.9l11.83,8.45,16.9-20.28Z" transform="translate(336 -4474.474)" fill="#dce496" stroke="#707070" stroke-width="1"/>
    <path id="Path_245" data-name="Path 245" d="M100.158,2906.572s17.718,25.066,54.466,38.8,31.5,14.765,81.37,26.783c5.25-.344,8.859-4.807,4.922-11.675-23.3-8.927-49.872-19.229-78.746-31.934s-54.466-35.711-54.466-35.711-3.609.343-7.546,5.837S100.158,2906.572,100.158,2906.572Z" transform="translate(330 -2853.474)" fill="#fff" stroke="#707070" stroke-width="1"/>
    <path id="Path_256" data-name="Path 256" d="M103.934,4513.836l5.565-18.875s39,30.5,60.5,39,81.5,29.5,81.5,29.5l-17,18s-37-12.5-78-31.5S103.934,4513.836,103.934,4513.836Z" transform="translate(336 -4472.474)" stroke="#707070" stroke-width="1"/>
    <path id="Path_257" data-name="Path 257" d="M236.1,4583.7l9.237-9.773s-51.889-13.882-80.791-28.9-58.033-38.917-58.033-38.917l13.2-28.22-6.827-3.414-11.834,39.144s16.613,22.075,59.171,39.827S236.1,4583.7,236.1,4583.7Z" transform="translate(336 -4474.474)" fill="#efef3c" stroke="#707070" stroke-width="1"/>
    <path id="Path_234-2" data-name="Path 234" d="M2109,3645.1s296.616-84.209,489.719-326.931S3079,2986.28,3079,2986.28" transform="translate(3131 3907.095) rotate(180)" fill="none" stroke="#000" stroke-width="2"/>
    <path id="Path_235-2" data-name="Path 235" d="M2572.566,2987.5l71.9-25.788,4.689-60.927s54.7-57.828-4.689-107.06-99.246,8.6-107.842,22.662c-6.252,11.722-6.252,42.98-6.252,42.98s-3.907,14.848-17.974,34.385c0,10.354,17.974,7.033,17.974,7.033s-4.689,29.7,6.252,35.947,31.259,0,31.259,0Z" transform="translate(3131 3975.456) rotate(180)" fill="#f9e4bb" stroke="#707070" stroke-width="1"/>
    <path id="Path_242-2" data-name="Path 242" d="M2662.043,2877.488l71.735,290.79s-47.062,54.147-71.735,70-57.69-249.606-57.69-249.606l46.223,264.133s-117.54,145.273-142.632,154.518-43.582-451.668,35.658-496.57C2642.653,2927.917,2662.043,2877.488,2662.043,2877.488Z" transform="translate(3131 3900.456) rotate(180)" stroke="#707070" stroke-width="1"/>
    <path id="Path_244-2" data-name="Path 244" d="M132.709,2842.949s44.182-10.779,79.929,0,63.059,67.689,63.059,67.689l-46.19,19.4-89.97-39.234Z" transform="translate(710.15 4049.796) rotate(180)" fill="#5072b5" stroke="#707070" stroke-width="1"/>
    <path id="Path_246-2" data-name="Path 246" d="M135.518,2891.415s9.959-15.917,27.033-22.408,41.26-3.557,41.26-3.557h3.2l-3.2,3.557s-23.742-1.512-39.837,5.335-24.543,22.053-24.543,22.053l-7.114-1.423Z" transform="translate(698 4074.456) rotate(180)" fill="#fff" stroke="#707070" stroke-width="1"/>
    <path id="Path_247-2" data-name="Path 247" d="M201.586,2891.049s-9.649-15.7-26.191-22.1-39.976-3.508-39.976-3.508h-3.1l3.1,3.508s23-1.491,38.6,5.262,23.779,21.75,23.779,21.75l6.892-1.4Z" transform="matrix(-0.545, -0.839, 0.839, -0.545, -1841.227, 2880.741)" fill="#fff" stroke="#707070" stroke-width="1"/>
    <path id="Path_236-2" data-name="Path 236" d="M2655.182,2875.7s-11.93,31.35-50.409,34.9-55.8-1.029-55.8-1.029l-9.225,14.4s57.052,3.95,80.342-1.019,55.346-24.537,51.3-44.414C2656.194,2872.862,2655.182,2875.7,2655.182,2875.7Z" transform="translate(3135.426 3909.7) rotate(180)" stroke="#707070" stroke-width="1"/>
    <path id="Path_253-2" data-name="Path 253" d="M2665.578,2866.223s-9.566,34.957-47.484,37.813-67.13,2.187-67.13,2.187l-3.846,3.846s55.126,2.073,78.076-1.923,51.3-24.01,47.307-40C2657.534,2863.577,2665.578,2866.223,2665.578,2866.223Z" transform="translate(3140.426 3900.546) rotate(180)" fill="#5072b5" stroke="#707070" stroke-width="1"/>
    <path id="Path_255-2" data-name="Path 255" d="M103.934,4546.909v19.435l59.995,21.125s23.66,6.76,23.66,21.125,16.9,44.785,16.9,44.785l32.955,107.314s31.265-85.344,23.66-107.314-32.11-65.91-32.11-65.91l-112.384-46.475Z" transform="translate(686 5703.456) rotate(180)" fill="#dce496" stroke="#707070" stroke-width="1"/>
    <path id="Path_254-2" data-name="Path 254" d="M95.484,4531.7s-9.295-3.379-11.83,8.45,0,16.9,0,16.9l11.83,8.45,16.9-20.28Z" transform="translate(686 5703.456) rotate(180)" fill="#dce496" stroke="#707070" stroke-width="1"/>
    <path id="Path_245-2" data-name="Path 245" d="M100.158,2906.572s17.718,25.066,54.466,38.8,31.5,14.765,81.37,26.783c5.25-.344,8.859-4.807,4.922-11.675-23.3-8.927-49.872-19.229-78.746-31.934s-54.466-35.711-54.466-35.711-3.609.343-7.546,5.837S100.158,2906.572,100.158,2906.572Z" transform="translate(692 4082.456) rotate(180)" fill="#fff" stroke="#707070" stroke-width="1"/>
    <path id="Path_256-2" data-name="Path 256" d="M103.934,4513.836l5.565-18.875s39,30.5,60.5,39,81.5,29.5,81.5,29.5l-17,18s-37-12.5-78-31.5S103.934,4513.836,103.934,4513.836Z" transform="translate(686 5701.456) rotate(180)" stroke="#707070" stroke-width="1"/>
    <path id="Path_257-2" data-name="Path 257" d="M236.1,4583.7l9.237-9.773s-51.889-13.882-80.791-28.9-58.033-38.917-58.033-38.917l13.2-28.22-6.827-3.414-11.834,39.144s16.613,22.075,59.171,39.827S236.1,4583.7,236.1,4583.7Z" transform="translate(686 5703.456) rotate(180)" fill="#efef3c" stroke="#707070" stroke-width="1"/>
    <path id="Union_50" data-name="Union 50" d="M91.709,222.105s9.118-18.7,14.215-59.646c-52.078,75.414-156.359-.3-77.3-80.409L109.6,0l81.9,82.05c80.631,80.783-30.071,160.219-79.615,78.626,5.263,42.525,16.492,61.429,16.492,61.429Z" transform="translate(100.952 540.421)" stroke="#000" stroke-width="1"/>
    <path id="Union_51" data-name="Union 51" d="M97.544,236.105s9.7-19.882,15.12-63.406c-55.391,80.168-166.307-.316-82.213-85.477L116.578,0l87.106,87.222C289.445,173.1,171.7,257.54,119,170.8c5.6,45.206,17.541,65.3,17.541,65.3Z" transform="translate(923 769.526) rotate(180)" stroke="#000" stroke-width="1"/>
  </g>
<text x="1517" y="2235" font-size="200">The Queen of Spades</text></g></svg>
