<svg id="Component_53_1" data-name="Component 53 – 1" xmlns="http://www.w3.org/2000/svg" width="1517" height="2235" viewBox="0 0 303 427"> <g transform="scale(0.06 0.06)">
  <g id="Rectangle_69" data-name="Rectangle 69" fill="#fff" stroke="#000" stroke-width="5">
    <rect width="1517" height="2235" rx="81" stroke="none"/>
    <rect x="2.5" y="2.5" width="1512" height="2230" rx="78.5" fill="none"/>
  </g>
  <path id="Union_90" data-name="Union 90" d="M91.709,222.105s9.118-18.7,14.215-59.646c-52.078,75.414-156.359-.3-77.3-80.409L109.6,0l81.9,82.05c80.631,80.783-30.071,160.219-79.615,78.626,5.263,42.525,16.492,61.429,16.492,61.429Z" transform="translate(86.952 240.895)" stroke="#000" stroke-width="1"/>
  <path id="Union_91" data-name="Union 91" d="M97.544,236.105s9.7-19.882,15.12-63.406c-55.391,80.168-166.307-.316-82.213-85.477L116.578,0l87.106,87.222C289.445,173.1,171.7,257.54,119,170.8c5.6,45.206,17.541,65.3,17.541,65.3Z" transform="translate(1459 2016) rotate(180)" stroke="#000" stroke-width="1"/>
  <text id="A" transform="translate(145 198)" font-size="175" font-family="TrebuchetMS, Trebuchet MS"><tspan x="0" y="0">9</tspan></text>
  <text id="A-2" data-name="A" transform="matrix(-1, 0.017, -0.017, -1, 1392.045, 2055.11)" font-size="175" font-family="TrebuchetMS, Trebuchet MS"><tspan x="0" y="0">9</tspan></text>
  <path id="Union_92" data-name="Union 92" d="M121.716,295.105s12.1-24.851,18.867-79.25C71.465,316.056-66.937,215.461,38,109.018L145.467,0,254.16,109.018C361.174,216.352,214.249,321.9,148.494,213.487c6.985,56.5,21.888,81.619,21.888,81.619Z" transform="translate(570 1912) rotate(180)" stroke="#000" stroke-width="1"/>
  <path id="Union_93" data-name="Union 93" d="M112.547,274.105s11.189-23.082,17.445-73.611c-63.911,93.071-191.887-.366-94.859-99.235L134.509,0l100.5,101.26c98.953,99.7-36.9,197.73-97.705,97.035,6.459,52.482,20.239,75.811,20.239,75.811Z" transform="matrix(1, -0.017, 0.017, 1, 286.47, 373.653)" stroke="#000" stroke-width="1"/>
  <path id="Union_94" data-name="Union 94" d="M120.466,292.105s11.977-24.6,18.673-78.445C70.731,312.843-66.25,213.27,37.606,107.91L143.973,0,251.549,107.91c105.915,106.243-39.5,210.714-104.58,103.407,6.914,55.928,21.663,80.789,21.663,80.789Z" transform="translate(1254 1910) rotate(180)" stroke="#000" stroke-width="1"/>
  <path id="Union_95" data-name="Union 95" d="M113.381,275.105s11.272-23.166,17.575-73.879c-64.385,93.41-193.309-.368-95.561-99.6L135.505,0,236.754,101.629c99.686,100.06-37.178,198.451-98.429,97.389,6.507,52.673,20.389,76.087,20.389,76.087Z" transform="matrix(1, -0.017, 0.017, 1, 971.464, 370.979)" stroke="#000" stroke-width="1"/>
  <path id="Union_96" data-name="Union 96" d="M124.217,301.105s12.35-25.356,19.254-80.862c-70.538,102.238-211.783-.4-104.694-109.009L148.456,0,259.381,111.234C368.594,220.751,218.65,328.441,151.545,217.827c7.129,57.651,22.338,83.278,22.338,83.278Z" transform="matrix(1, -0.017, 0.017, 1, 272.003, 768.146)" stroke="#000" stroke-width="1"/>
  <path id="Union_97" data-name="Union 97" d="M121.716,296.105s12.1-24.935,18.867-79.519c-69.118,100.541-207.52-.4-102.587-107.2L145.467,0,254.16,109.387c107.014,107.7-39.911,213.6-105.665,104.823,6.985,56.694,21.888,81.9,21.888,81.9Z" transform="matrix(1, -0.017, 0.017, 1, 967.098, 791.982)" stroke="#000" stroke-width="1"/>
  <path id="Union_98" data-name="Union 98" d="M121.716,296.105s12.1-24.935,18.867-79.519c-69.118,100.541-207.52-.4-102.587-107.2L145.467,0,254.16,109.387c107.014,107.7-39.911,213.6-105.665,104.823,6.985,56.694,21.888,81.9,21.888,81.9Z" transform="matrix(1, -0.017, 0.017, 1, 610.098, 1000.982)" stroke="#000" stroke-width="1"/>
  <path id="Union_99" data-name="Union 99" d="M120.466,292.105s11.977-24.6,18.673-78.445C70.731,312.843-66.25,213.27,37.606,107.91L143.973,0,251.549,107.91c105.915,106.243-39.5,210.714-104.58,103.407,6.914,55.928,21.663,80.789,21.663,80.789Z" transform="translate(575 1521) rotate(180)" stroke="#000" stroke-width="1"/>
  <path id="Union_110" data-name="Union 110" d="M120.466,292.105s11.977-24.6,18.673-78.445C70.731,312.843-66.25,213.27,37.606,107.91L143.973,0,251.549,107.91c105.915,106.243-39.5,210.714-104.58,103.407,6.914,55.928,21.663,80.789,21.663,80.789Z" transform="translate(1256 1521) rotate(180)" stroke="#000" stroke-width="1"/>
<text x="1517" y="2235" font-size="200">The 9 of Spades</text></g></svg>
