<svg id="Component_58_1" data-name="Component 58 – 1" xmlns="http://www.w3.org/2000/svg" width="1517" height="2235" viewBox="0 0 303 427"> <g transform="scale(0.06 0.06)">
  <g id="Rectangle_4" data-name="Rectangle 4" fill="#fff" stroke="#000" stroke-width="5">
    <rect width="1517" height="2235" rx="81" stroke="none"/>
    <rect x="2.5" y="2.5" width="1512" height="2230" rx="78.5" fill="none"/>
  </g>
  <path id="Path_18" data-name="Path 18" d="M157.68,1024.3h41.742c-20.386-80.572-17.357-99.171-14.561-118.431,19.415,79.6,104.841,99.987,125.227,35.918,20.386-70.865-65.04-95.133-96.1-66.982,31.064-29.122,58.245-102.9-36.888-105.812S114,856.365,141.177,874.809C114,856.365,15.95,871.9,57.693,941.791s99.016,10.678,113.578-35.918C170.3,935.967,178.065,968.972,157.68,1024.3Z" transform="translate(52 -504.93)" stroke="#000" stroke-width="1"/>
  <path id="Path_19" data-name="Path 19" d="M161.464,1033.075H204.64c-21.086-83.339-17.953-102.577-15.061-122.5C209.66,992.912,298.02,1014,319.105,947.728c21.086-73.3-67.274-98.4-99.4-69.282C251.832,848.323,279.946,772.012,181.546,769s-65.266,90.368-37.151,109.445c-28.114-19.078-129.527-3.012-86.351,69.282s102.417,11.045,117.478-37.151C174.517,941.7,182.55,975.842,161.464,1033.075Z" transform="matrix(-0.999, 0.035, -0.035, -0.999, 1549.77, 2758.358)" stroke="#000" stroke-width="1"/>
  <text id="A" transform="translate(178 208)" font-size="175" font-family="TrebuchetMS, Trebuchet MS"><tspan x="0" y="0">A</tspan></text>
  <text id="A-2" data-name="A" transform="matrix(-1, 0.017, -0.017, -1, 1379.045, 2046.111)" font-size="175" font-family="TrebuchetMS, Trebuchet MS"><tspan x="0" y="0">A</tspan></text>
  <path id="Path_23" data-name="Path 23" d="M228.059,1187.414h68.4C263.056,1055.38,268.019,1024.9,272.6,993.34c31.815,130.443,171.8,163.849,205.209,58.859,33.406-116.126-106.582-155.9-157.486-109.763,50.9-47.723,95.446-168.622-60.449-173.394s-103.4,143.169-58.858,173.394C156.475,912.211-4.193,937.663,64.21,1052.2s162.258,17.5,186.12-58.859C248.739,1042.654,261.466,1096.74,228.059,1187.414Z" transform="translate(508 157.586)" stroke="#000" stroke-width="1"/>
<text x="1517" y="2235" font-size="200">The Ace of Clover</text></g></svg>
