<svg id="Component_62_1" data-name="Component 62 – 1" xmlns="http://www.w3.org/2000/svg" width="1517" height="2235" viewBox="0 0 303 427"> <g transform="scale(0.06 0.06)">
  <g id="Rectangle_58" data-name="Rectangle 58" fill="#fff" stroke="#000" stroke-width="5">
    <rect width="1517" height="2235" rx="81" stroke="none"/>
    <rect x="2.5" y="2.5" width="1512" height="2230" rx="78.5" fill="none"/>
  </g>
  <path id="Path_425" data-name="Path 425" d="M157.68,1024.3h41.742c-20.386-80.572-17.357-99.171-14.561-118.431,19.415,79.6,104.841,99.987,125.227,35.918,20.386-70.865-65.04-95.133-96.1-66.982,31.064-29.122,58.245-102.9-36.888-105.812S114,856.365,141.177,874.809C114,856.365,15.95,871.9,57.693,941.791s99.016,10.678,113.578-35.918C170.3,935.967,178.065,968.972,157.68,1024.3Z" transform="translate(52 -504.929)" stroke="#000" stroke-width="1"/>
  <path id="Path_426" data-name="Path 426" d="M161.464,1033.075H204.64c-21.086-83.339-17.953-102.577-15.061-122.5C209.66,992.912,298.02,1014,319.105,947.728c21.086-73.3-67.274-98.4-99.4-69.282C251.832,848.323,279.946,772.012,181.546,769s-65.266,90.368-37.151,109.445c-28.114-19.078-129.527-3.012-86.351,69.282s102.417,11.045,117.478-37.151C174.517,941.7,182.55,975.842,161.464,1033.075Z" transform="matrix(-0.999, 0.035, -0.035, -0.999, 1549.77, 2758.357)" stroke="#000" stroke-width="1"/>
  <text id="A" transform="translate(178 208)" font-size="175" font-family="TrebuchetMS, Trebuchet MS"><tspan x="0" y="0">5</tspan></text>
  <text id="A-2" data-name="A" transform="matrix(-1, 0.017, -0.017, -1, 1379.045, 2046.11)" font-size="175" font-family="TrebuchetMS, Trebuchet MS"><tspan x="0" y="0">5</tspan></text>
  <path id="Path_440" data-name="Path 440" d="M203.632,1130.8h59.15c-28.887-114.172-24.6-140.527-20.634-167.82,27.511,112.8,148.561,141.684,177.448,50.9,28.887-100.417-92.163-134.806-136.181-94.914,44.018-41.267,82.534-145.81-52.272-149.937s-89.412,123.8-50.9,149.937c-38.516-26.136-177.448-4.127-118.3,94.914s140.308,15.131,160.942-50.9C221.514,1005.625,232.519,1052.394,203.632,1130.8Z" transform="translate(698.487 2496.929) rotate(180)" stroke="#000" stroke-width="1"/>
  <path id="Path_441" data-name="Path 441" d="M203.632,1130.8h59.15c-28.887-114.172-24.6-140.527-20.634-167.82,27.511,112.8,148.561,141.684,177.448,50.9,28.887-100.417-92.163-134.806-136.181-94.914,44.018-41.267,82.534-145.81-52.272-149.937s-89.412,123.8-50.9,149.937c-38.516-26.136-177.448-4.127-118.3,94.914s140.308,15.131,160.942-50.9C221.514,1005.625,232.519,1052.394,203.632,1130.8Z" transform="matrix(1, 0.017, -0.017, 1, 255.079, -250.57)" stroke="#000" stroke-width="1"/>
  <path id="Path_442" data-name="Path 442" d="M203.632,1130.8h59.15c-28.887-114.172-24.6-140.527-20.634-167.82,27.511,112.8,148.561,141.684,177.448,50.9,28.887-100.417-92.163-134.806-136.181-94.914,44.018-41.267,82.534-145.81-52.272-149.937s-89.412,123.8-50.9,149.937c-38.516-26.136-177.448-4.127-118.3,94.914s140.308,15.131,160.942-50.9C221.514,1005.625,232.519,1052.394,203.632,1130.8Z" transform="translate(1267.487 2496.929) rotate(180)" stroke="#000" stroke-width="1"/>
  <path id="Path_443" data-name="Path 443" d="M203.632,1130.8h59.15c-28.887-114.172-24.6-140.527-20.634-167.82,27.511,112.8,148.561,141.684,177.448,50.9,28.887-100.417-92.163-134.806-136.181-94.914,44.018-41.267,82.534-145.81-52.272-149.937s-89.412,123.8-50.9,149.937c-38.516-26.136-177.448-4.127-118.3,94.914s140.308,15.131,160.942-50.9C221.514,1005.625,232.519,1052.394,203.632,1130.8Z" transform="matrix(1, 0.017, -0.017, 1, 824.079, -250.57)" stroke="#000" stroke-width="1"/>
  <path id="Path_447" data-name="Path 447" d="M203.632,1130.8h59.15c-28.887-114.172-24.6-140.527-20.634-167.82,27.511,112.8,148.561,141.684,177.448,50.9,28.887-100.417-92.163-134.806-136.181-94.914,44.018-41.267,82.534-145.81-52.272-149.937s-89.412,123.8-50.9,149.937c-38.516-26.136-177.448-4.127-118.3,94.914s140.308,15.131,160.942-50.9C221.514,1005.625,232.519,1052.394,203.632,1130.8Z" transform="matrix(1, 0.017, -0.017, 1, 524.079, 184.43)" stroke="#000" stroke-width="1"/>
<text x="1517" y="2235" font-size="200">The 5 of Clover</text></g></svg>
