<svg id="Component_65_1" data-name="Component 65 – 1" xmlns="http://www.w3.org/2000/svg" width="1517" height="2235" viewBox="0 0 303 427"> <g transform="scale(0.06 0.06)">
  <g id="Rectangle_67" data-name="Rectangle 67" fill="#fff" stroke="#000" stroke-width="5">
    <rect width="1517" height="2235" rx="81" stroke="none"/>
    <rect x="2.5" y="2.5" width="1512" height="2230" rx="78.5" fill="none"/>
  </g>
  <path id="Path_531" data-name="Path 531" d="M157.68,1024.3h41.742c-20.386-80.572-17.357-99.171-14.561-118.431,19.415,79.6,104.841,99.987,125.227,35.918,20.386-70.865-65.04-95.133-96.1-66.982,31.064-29.122,58.245-102.9-36.888-105.812S114,856.365,141.177,874.809C114,856.365,15.95,871.9,57.693,941.791s99.016,10.678,113.578-35.918C170.3,935.967,178.065,968.972,157.68,1024.3Z" transform="translate(52 -504.929)" stroke="#000" stroke-width="1"/>
  <path id="Path_532" data-name="Path 532" d="M161.464,1033.075H204.64c-21.086-83.339-17.953-102.577-15.061-122.5C209.66,992.912,298.02,1014,319.105,947.728c21.086-73.3-67.274-98.4-99.4-69.282C251.832,848.323,279.946,772.012,181.546,769s-65.266,90.368-37.151,109.445c-28.114-19.078-129.527-3.012-86.351,69.282s102.417,11.045,117.478-37.151C174.517,941.7,182.55,975.842,161.464,1033.075Z" transform="matrix(-0.999, 0.035, -0.035, -0.999, 1544.77, 2714.357)" stroke="#000" stroke-width="1"/>
  <text id="A" transform="translate(178 208)" font-size="175" font-family="TrebuchetMS, Trebuchet MS"><tspan x="0" y="0">8</tspan></text>
  <text id="A-2" data-name="A" transform="matrix(-1, 0.017, -0.017, -1, 1379.045, 2046.11)" font-size="175" font-family="TrebuchetMS, Trebuchet MS"><tspan x="0" y="0">8</tspan></text>
  <path id="Path_541" data-name="Path 541" d="M167,1045.9h45.272c-22.11-87.385-18.825-107.556-15.793-128.446,21.057,86.332,113.706,108.442,135.816,38.955,22.109-76.857-70.54-103.178-104.231-72.646,33.691-31.585,63.17-111.6-40.008-114.759S119.62,863.759,149.1,883.763c-29.479-20-135.816-3.159-90.544,72.646s107.389,11.581,123.182-38.955C180.684,950.091,189.107,985.888,167,1045.9Z" transform="matrix(1, 0.017, -0.017, 1, 305.307, -417.481)" stroke="#000" stroke-width="1"/>
  <path id="Path_554" data-name="Path 554" d="M167,1045.9h45.272c-22.11-87.385-18.825-107.556-15.793-128.446,21.057,86.332,113.706,108.442,135.816,38.955,22.109-76.857-70.54-103.178-104.231-72.646,33.691-31.585,63.17-111.6-40.008-114.759S119.62,863.759,149.1,883.763c-29.479-20-135.816-3.159-90.544,72.646s107.389,11.581,123.182-38.955C180.684,950.091,189.107,985.888,167,1045.9Z" transform="matrix(1, 0.017, -0.017, 1, 917.307, -417.481)" stroke="#000" stroke-width="1"/>
  <path id="Path_555" data-name="Path 555" d="M167,1045.9h45.272c-22.11-87.385-18.825-107.556-15.793-128.446,21.057,86.332,113.706,108.442,135.816,38.955,22.109-76.857-70.54-103.178-104.231-72.646,33.691-31.585,63.17-111.6-40.008-114.759S119.62,863.759,149.1,883.763c-29.479-20-135.816-3.159-90.544,72.646s107.389,11.581,123.182-38.955C180.684,950.091,189.107,985.888,167,1045.9Z" transform="matrix(1, 0.017, -0.017, 1, 298.307, 177.519)" stroke="#000" stroke-width="1"/>
  <path id="Path_556" data-name="Path 556" d="M167,1045.9h45.272c-22.11-87.385-18.825-107.556-15.793-128.446,21.057,86.332,113.706,108.442,135.816,38.955,22.109-76.857-70.54-103.178-104.231-72.646,33.691-31.585,63.17-111.6-40.008-114.759S119.62,863.759,149.1,883.763c-29.479-20-135.816-3.159-90.544,72.646s107.389,11.581,123.182-38.955C180.684,950.091,189.107,985.888,167,1045.9Z" transform="matrix(1, 0.017, -0.017, 1, 910.307, 177.519)" stroke="#000" stroke-width="1"/>
  <path id="Path_557" data-name="Path 557" d="M167,1045.9h45.272c-22.11-87.385-18.825-107.556-15.793-128.446,21.057,86.332,113.706,108.442,135.816,38.955,22.109-76.857-70.54-103.178-104.231-72.646,33.691-31.585,63.17-111.6-40.008-114.759S119.62,863.759,149.1,883.763c-29.479-20-135.816-3.159-90.544,72.646s107.389,11.581,123.182-38.955C180.684,950.091,189.107,985.888,167,1045.9Z" transform="translate(1257.725 2593.757) rotate(-179)" stroke="#000" stroke-width="1"/>
  <path id="Path_558" data-name="Path 558" d="M167,1045.9h45.272c-22.11-87.385-18.825-107.556-15.793-128.446,21.057,86.332,113.706,108.442,135.816,38.955,22.109-76.857-70.54-103.178-104.231-72.646,33.691-31.585,63.17-111.6-40.008-114.759S119.62,863.759,149.1,883.763c-29.479-20-135.816-3.159-90.544,72.646s107.389,11.581,123.182-38.955C180.684,950.091,189.107,985.888,167,1045.9Z" transform="translate(649.725 2593.757) rotate(-179)" stroke="#000" stroke-width="1"/>
  <path id="Path_562" data-name="Path 562" d="M167,1045.9h45.272c-22.11-87.385-18.825-107.556-15.793-128.446,21.057,86.332,113.706,108.442,135.816,38.955,22.109-76.857-70.54-103.178-104.231-72.646,33.691-31.585,63.17-111.6-40.008-114.759S119.62,863.759,149.1,883.763c-29.479-20-135.816-3.159-90.544,72.646s107.389,11.581,123.182-38.955C180.684,950.091,189.107,985.888,167,1045.9Z" transform="matrix(1, 0.017, -0.017, 1, 582.307, -104.481)" stroke="#000" stroke-width="1"/>
  <path id="Path_567" data-name="Path 567" d="M167,1045.9h45.272c-22.11-87.385-18.825-107.556-15.793-128.446,21.057,86.332,113.706,108.442,135.816,38.955,22.109-76.857-70.54-103.178-104.231-72.646,33.691-31.585,63.17-111.6-40.008-114.759S119.62,863.759,149.1,883.763c-29.479-20-135.816-3.159-90.544,72.646s107.389,11.581,123.182-38.955C180.684,950.091,189.107,985.888,167,1045.9Z" transform="translate(933.725 2311.757) rotate(-179)" stroke="#000" stroke-width="1"/>
<text x="1517" y="2235" font-size="200">The 8 of Clover</text></g></svg>
